<svg xmlns="http://www.w3.org/2000/svg" xmlns:xlink="http://www.w3.org/1999/xlink" width="500" zoomAndPan="magnify" viewBox="0 0 375 374.999991" height="500" preserveAspectRatio="xMidYMid meet" version="1.0"><defs><g/><clipPath id="4fb5bc485c"><path d="M 60.152344 165.285156 L 97 165.285156 L 97 212 L 60.152344 212 Z M 60.152344 165.285156 " clip-rule="nonzero"/></clipPath><clipPath id="7854108339"><path d="M 98 165.285156 L 135 165.285156 L 135 212 L 98 212 Z M 98 165.285156 " clip-rule="nonzero"/></clipPath></defs><g clip-path="url(#4fb5bc485c)"><path fill="#6968d4" d="M 77.664062 206.453125 L 89.492188 202.65625 L 96.722656 200.335938 L 96.722656 165.121094 L 93.578125 168.851562 C 93.578125 168.851562 93.535156 168.917969 93.507812 168.933594 L 60.832031 207.792969 C 60.730469 207.910156 60.6875 207.976562 60.675781 208.027344 C 60.558594 208.226562 60.488281 208.339844 60.429688 208.492188 C 60.429688 208.539062 60.386719 208.605469 60.375 208.6875 C 60.375 208.738281 60.359375 208.773438 60.34375 208.820312 C 60.203125 209.601562 60.488281 210.480469 61.058594 210.976562 C 61.375 211.257812 61.902344 211.523438 62.617188 211.289062 L 77.675781 206.46875 Z M 77.664062 206.453125 " fill-opacity="1" fill-rule="nonzero"/></g><path fill="#6968d4" d="M 78.503906 208.257812 L 72.90625 221.632812 C 72.90625 221.632812 72.875 221.714844 72.863281 221.746094 L 71.574219 224.832031 L 71.574219 224.914062 C 71.574219 225.378906 71.847656 225.691406 72.105469 225.824219 C 72.261719 225.90625 72.660156 226.039062 73.046875 225.640625 L 94.351562 203.1875 Z M 78.503906 208.257812 " fill-opacity="1" fill-rule="nonzero"/><g clip-path="url(#7854108339)"><path fill="#6968d4" d="M 98.4375 200.355469 L 105.507812 202.625 L 117.496094 206.46875 L 132.542969 211.289062 C 133.269531 211.523438 133.796875 211.242188 134.113281 210.976562 C 134.671875 210.480469 134.96875 209.601562 134.828125 208.820312 C 134.828125 208.789062 134.796875 208.738281 134.796875 208.6875 C 134.785156 208.605469 134.753906 208.523438 134.726562 208.441406 C 134.683594 208.339844 134.628906 208.207031 134.554688 208.09375 C 134.484375 207.976562 134.441406 207.894531 134.355469 207.792969 L 101.652344 168.949219 C 101.652344 168.949219 101.609375 168.898438 101.59375 168.867188 L 98.449219 165.136719 L 98.449219 200.355469 Z M 98.4375 200.355469 " fill-opacity="1" fill-rule="nonzero"/></g><path fill="#6968d4" d="M 116.667969 208.257812 L 100.824219 203.1875 L 122.125 225.640625 C 122.511719 226.039062 122.910156 225.90625 123.070312 225.824219 C 123.339844 225.691406 123.65625 225.359375 123.597656 224.832031 L 122.3125 221.746094 C 122.3125 221.746094 122.28125 221.664062 122.269531 221.632812 C 122.269531 221.632812 116.667969 208.257812 116.667969 208.257812 Z M 116.667969 208.257812 " fill-opacity="1" fill-rule="nonzero"/><g fill="#000000" fill-opacity="1"><g transform="translate(136.083908, 207.306169)"><g><path d="M 33.53125 -38.734375 C 34.414062 -38.734375 35.132812 -38.4375 35.6875 -37.84375 C 36.25 -37.257812 36.53125 -36.523438 36.53125 -35.640625 L 36.53125 -3.375 C 36.53125 -2.414062 36.207031 -1.613281 35.5625 -0.96875 C 34.914062 -0.320312 34.113281 0 33.15625 0 C 32.632812 0 32.125 -0.0820312 31.625 -0.25 C 31.125 -0.414062 30.765625 -0.644531 30.546875 -0.9375 L 10.234375 -26.734375 L 10.234375 -3.09375 C 10.234375 -2.207031 9.945312 -1.46875 9.375 -0.875 C 8.800781 -0.289062 8.054688 0 7.140625 0 C 6.253906 0 5.535156 -0.289062 4.984375 -0.875 C 4.429688 -1.46875 4.15625 -2.207031 4.15625 -3.09375 L 4.15625 -35.359375 C 4.15625 -36.316406 4.476562 -37.117188 5.125 -37.765625 C 5.769531 -38.410156 6.570312 -38.734375 7.53125 -38.734375 C 8.082031 -38.734375 8.625 -38.625 9.15625 -38.40625 C 9.695312 -38.1875 10.09375 -37.890625 10.34375 -37.515625 L 30.5 -11.84375 L 30.5 -35.640625 C 30.5 -36.523438 30.78125 -37.257812 31.34375 -37.84375 C 31.914062 -38.4375 32.644531 -38.734375 33.53125 -38.734375 Z M 33.53125 -38.734375 "/></g></g></g><g fill="#000000" fill-opacity="1"><g transform="translate(172.771089, 207.306169)"><g><path d="M 30.15625 -15.5 C 30.125 -14.613281 29.773438 -13.890625 29.109375 -13.328125 C 28.441406 -12.773438 27.664062 -12.5 26.78125 -12.5 L 8.515625 -12.5 C 8.960938 -10.332031 9.976562 -8.628906 11.5625 -7.390625 C 13.15625 -6.148438 14.945312 -5.53125 16.9375 -5.53125 C 18.445312 -5.53125 19.625 -5.664062 20.46875 -5.9375 C 21.320312 -6.21875 22 -6.515625 22.5 -6.828125 C 23 -7.148438 23.335938 -7.363281 23.515625 -7.46875 C 24.179688 -7.800781 24.8125 -7.96875 25.40625 -7.96875 C 26.175781 -7.96875 26.835938 -7.691406 27.390625 -7.140625 C 27.941406 -6.585938 28.21875 -5.941406 28.21875 -5.203125 C 28.21875 -4.203125 27.703125 -3.296875 26.671875 -2.484375 C 25.640625 -1.640625 24.253906 -0.921875 22.515625 -0.328125 C 20.785156 0.253906 19.035156 0.546875 17.265625 0.546875 C 14.171875 0.546875 11.46875 -0.0976562 9.15625 -1.390625 C 6.851562 -2.679688 5.070312 -4.457031 3.8125 -6.71875 C 2.5625 -8.988281 1.9375 -11.546875 1.9375 -14.390625 C 1.9375 -17.566406 2.597656 -20.351562 3.921875 -22.75 C 5.253906 -25.144531 7.007812 -26.976562 9.1875 -28.25 C 11.363281 -29.519531 13.6875 -30.15625 16.15625 -30.15625 C 18.59375 -30.15625 20.890625 -29.488281 23.046875 -28.15625 C 25.203125 -26.832031 26.925781 -25.046875 28.21875 -22.796875 C 29.507812 -20.546875 30.15625 -18.113281 30.15625 -15.5 Z M 16.15625 -24.078125 C 11.875 -24.078125 9.347656 -22.066406 8.578125 -18.046875 L 23.078125 -18.046875 L 23.078125 -18.421875 C 22.929688 -19.972656 22.175781 -21.300781 20.8125 -22.40625 C 19.445312 -23.519531 17.894531 -24.078125 16.15625 -24.078125 Z M 16.15625 -24.078125 "/></g></g></g><g fill="#000000" fill-opacity="1"><g transform="translate(200.881198, 207.306169)"><g><path d="M 25.40625 -5.25 C 25.882812 -4.664062 26.125 -4.003906 26.125 -3.265625 C 26.125 -2.335938 25.769531 -1.539062 25.0625 -0.875 C 24.363281 -0.21875 23.59375 0.109375 22.75 0.109375 C 21.675781 0.109375 20.769531 -0.367188 20.03125 -1.328125 L 13.390625 -9.578125 L 6.921875 -1.328125 C 6.585938 -0.890625 6.1875 -0.546875 5.71875 -0.296875 C 5.257812 -0.0546875 4.773438 0.0625 4.265625 0.0625 C 3.484375 0.0625 2.742188 -0.234375 2.046875 -0.828125 C 1.347656 -1.421875 1 -2.101562 1 -2.875 C 1 -3.613281 1.273438 -4.316406 1.828125 -4.984375 L 9.515625 -14.390625 L 1.546875 -24.296875 C 1.066406 -24.890625 0.828125 -25.550781 0.828125 -26.28125 C 0.828125 -27.207031 1.164062 -27.992188 1.84375 -28.640625 C 2.53125 -29.285156 3.316406 -29.609375 4.203125 -29.609375 C 5.273438 -29.609375 6.179688 -29.144531 6.921875 -28.21875 L 13.71875 -19.75 L 20.03125 -28.109375 C 20.738281 -29.109375 21.625 -29.609375 22.6875 -29.609375 C 23.570312 -29.609375 24.316406 -29.300781 24.921875 -28.6875 C 25.535156 -28.082031 25.84375 -27.394531 25.84375 -26.625 C 25.84375 -25.8125 25.585938 -25.09375 25.078125 -24.46875 L 17.4375 -15.171875 Z M 25.40625 -5.25 "/></g></g></g><g fill="#000000" fill-opacity="1"><g transform="translate(223.845072, 207.306169)"><g><path d="M 32.703125 -20.921875 C 33.660156 -20.921875 34.453125 -20.597656 35.078125 -19.953125 C 35.710938 -19.304688 36.03125 -18.503906 36.03125 -17.546875 L 36.03125 -5.8125 C 36.03125 -4.519531 35.457031 -3.523438 34.3125 -2.828125 C 30.695312 -0.578125 26.734375 0.546875 22.421875 0.546875 C 18.765625 0.546875 15.382812 -0.34375 12.28125 -2.125 C 9.1875 -3.914062 6.734375 -6.332031 4.921875 -9.375 C 3.117188 -12.425781 2.21875 -15.757812 2.21875 -19.375 C 2.21875 -22.988281 3.117188 -26.316406 4.921875 -29.359375 C 6.734375 -32.398438 9.1875 -34.816406 12.28125 -36.609375 C 15.382812 -38.398438 18.765625 -39.296875 22.421875 -39.296875 C 26.066406 -39.296875 29.238281 -38.554688 31.9375 -37.078125 C 32.488281 -36.785156 32.898438 -36.398438 33.171875 -35.921875 C 33.453125 -35.441406 33.59375 -34.925781 33.59375 -34.375 C 33.59375 -33.445312 33.285156 -32.640625 32.671875 -31.953125 C 32.066406 -31.273438 31.320312 -30.9375 30.4375 -30.9375 C 29.882812 -30.9375 29.273438 -31.082031 28.609375 -31.375 C 26.617188 -32.226562 24.554688 -32.65625 22.421875 -32.65625 C 20.054688 -32.65625 17.875 -32.054688 15.875 -30.859375 C 13.882812 -29.660156 12.304688 -28.046875 11.140625 -26.015625 C 9.984375 -23.984375 9.40625 -21.769531 9.40625 -19.375 C 9.40625 -16.96875 9.984375 -14.75 11.140625 -12.71875 C 12.304688 -10.695312 13.882812 -9.085938 15.875 -7.890625 C 17.875 -6.691406 20.054688 -6.09375 22.421875 -6.09375 C 23.453125 -6.09375 24.554688 -6.179688 25.734375 -6.359375 C 26.910156 -6.546875 27.941406 -6.785156 28.828125 -7.078125 L 28.828125 -14.28125 L 23.625 -14.28125 C 22.664062 -14.28125 21.863281 -14.59375 21.21875 -15.21875 C 20.570312 -15.84375 20.25 -16.632812 20.25 -17.59375 C 20.25 -18.550781 20.570312 -19.34375 21.21875 -19.96875 C 21.863281 -20.601562 22.664062 -20.921875 23.625 -20.921875 Z M 32.703125 -20.921875 "/></g></g></g><g fill="#000000" fill-opacity="1"><g transform="translate(258.374149, 207.306169)"><g><path d="M 30.15625 -15.5 C 30.125 -14.613281 29.773438 -13.890625 29.109375 -13.328125 C 28.441406 -12.773438 27.664062 -12.5 26.78125 -12.5 L 8.515625 -12.5 C 8.960938 -10.332031 9.976562 -8.628906 11.5625 -7.390625 C 13.15625 -6.148438 14.945312 -5.53125 16.9375 -5.53125 C 18.445312 -5.53125 19.625 -5.664062 20.46875 -5.9375 C 21.320312 -6.21875 22 -6.515625 22.5 -6.828125 C 23 -7.148438 23.335938 -7.363281 23.515625 -7.46875 C 24.179688 -7.800781 24.8125 -7.96875 25.40625 -7.96875 C 26.175781 -7.96875 26.835938 -7.691406 27.390625 -7.140625 C 27.941406 -6.585938 28.21875 -5.941406 28.21875 -5.203125 C 28.21875 -4.203125 27.703125 -3.296875 26.671875 -2.484375 C 25.640625 -1.640625 24.253906 -0.921875 22.515625 -0.328125 C 20.785156 0.253906 19.035156 0.546875 17.265625 0.546875 C 14.171875 0.546875 11.46875 -0.0976562 9.15625 -1.390625 C 6.851562 -2.679688 5.070312 -4.457031 3.8125 -6.71875 C 2.5625 -8.988281 1.9375 -11.546875 1.9375 -14.390625 C 1.9375 -17.566406 2.597656 -20.351562 3.921875 -22.75 C 5.253906 -25.144531 7.007812 -26.976562 9.1875 -28.25 C 11.363281 -29.519531 13.6875 -30.15625 16.15625 -30.15625 C 18.59375 -30.15625 20.890625 -29.488281 23.046875 -28.15625 C 25.203125 -26.832031 26.925781 -25.046875 28.21875 -22.796875 C 29.507812 -20.546875 30.15625 -18.113281 30.15625 -15.5 Z M 16.15625 -24.078125 C 11.875 -24.078125 9.347656 -22.066406 8.578125 -18.046875 L 23.078125 -18.046875 L 23.078125 -18.421875 C 22.929688 -19.972656 22.175781 -21.300781 20.8125 -22.40625 C 19.445312 -23.519531 17.894531 -24.078125 16.15625 -24.078125 Z M 16.15625 -24.078125 "/></g></g></g><g fill="#000000" fill-opacity="1"><g transform="translate(286.484258, 207.306169)"><g><path d="M 19.421875 -30.15625 C 23.191406 -30.15625 25.796875 -29.039062 27.234375 -26.8125 C 28.671875 -24.582031 29.390625 -21.492188 29.390625 -17.546875 L 29.390625 -3.375 C 29.390625 -2.414062 29.070312 -1.613281 28.4375 -0.96875 C 27.8125 -0.320312 27.019531 0 26.0625 0 C 25.101562 0 24.3125 -0.320312 23.6875 -0.96875 C 23.0625 -1.613281 22.75 -2.414062 22.75 -3.375 L 22.75 -17.546875 C 22.75 -19.578125 22.320312 -21.171875 21.46875 -22.328125 C 20.625 -23.492188 19.164062 -24.078125 17.09375 -24.078125 C 14.957031 -24.078125 13.28125 -23.457031 12.0625 -22.21875 C 10.84375 -20.976562 10.234375 -19.421875 10.234375 -17.546875 L 10.234375 -3.375 C 10.234375 -2.414062 9.921875 -1.613281 9.296875 -0.96875 C 8.671875 -0.320312 7.878906 0 6.921875 0 C 5.960938 0 5.164062 -0.320312 4.53125 -0.96875 C 3.90625 -1.613281 3.59375 -2.414062 3.59375 -3.375 L 3.59375 -26.234375 C 3.59375 -27.191406 3.90625 -27.992188 4.53125 -28.640625 C 5.164062 -29.285156 5.960938 -29.609375 6.921875 -29.609375 C 7.878906 -29.609375 8.671875 -29.285156 9.296875 -28.640625 C 9.921875 -27.992188 10.234375 -27.191406 10.234375 -26.234375 L 10.234375 -25.296875 C 11.234375 -26.617188 12.535156 -27.757812 14.140625 -28.71875 C 15.742188 -29.675781 17.503906 -30.15625 19.421875 -30.15625 Z M 19.421875 -30.15625 "/></g></g></g><g fill="#000000" fill-opacity="1"><g transform="translate(315.48624, 207.306169)"><g/></g></g><g fill="#9695ff" fill-opacity="1"><g transform="translate(148.053568, 224.362939)"><g><path d="M 2.65625 -8.859375 L 2.65625 -1.765625 L 5.703125 -1.765625 L 5.703125 0 L 0.640625 0 L 0.640625 -8.859375 Z M 2.65625 -8.859375 "/></g></g></g><g fill="#9695ff" fill-opacity="1"><g transform="translate(154.11183, 224.362939)"><g><path d="M 5.703125 -8.859375 L 5.703125 -7.078125 L 2.65625 -7.078125 L 2.65625 -5.328125 L 5.578125 -5.328125 L 5.578125 -3.546875 L 2.65625 -3.546875 L 2.65625 -1.765625 L 5.703125 -1.765625 L 5.703125 0 L 0.640625 0 L 0.640625 -8.859375 Z M 5.703125 -8.859375 "/></g></g></g><g fill="#9695ff" fill-opacity="1"><g transform="translate(160.330927, 224.362939)"><g><path d="M 5.140625 -8.859375 L 8.71875 0 L 6.546875 0 L 5.890625 -1.765625 L 2.515625 -1.765625 L 1.875 0 L -0.296875 0 L 3.28125 -8.859375 Z M 5.203125 -3.546875 L 4.21875 -6.125 L 4.203125 -6.125 L 3.203125 -3.546875 Z M 5.203125 -3.546875 "/></g></g></g><g fill="#9695ff" fill-opacity="1"><g transform="translate(168.737424, 224.362939)"><g><path d="M 0.640625 -8.859375 L 3.8125 -8.859375 C 4.664062 -8.859375 5.359375 -8.628906 5.890625 -8.171875 C 6.429688 -7.722656 6.703125 -7.070312 6.703125 -6.21875 C 6.703125 -5.570312 6.535156 -5.023438 6.203125 -4.578125 C 5.878906 -4.140625 5.441406 -3.832031 4.890625 -3.65625 L 7.9375 0 L 5.359375 0 L 2.65625 -3.5 L 2.65625 0 L 0.640625 0 Z M 2.65625 -4.921875 L 2.890625 -4.921875 C 3.078125 -4.921875 3.234375 -4.925781 3.359375 -4.9375 C 3.492188 -4.945312 3.644531 -4.972656 3.8125 -5.015625 C 3.976562 -5.054688 4.109375 -5.113281 4.203125 -5.1875 C 4.304688 -5.269531 4.394531 -5.382812 4.46875 -5.53125 C 4.539062 -5.6875 4.578125 -5.867188 4.578125 -6.078125 C 4.578125 -6.296875 4.539062 -6.476562 4.46875 -6.625 C 4.394531 -6.78125 4.304688 -6.894531 4.203125 -6.96875 C 4.109375 -7.050781 3.976562 -7.113281 3.8125 -7.15625 C 3.644531 -7.195312 3.492188 -7.222656 3.359375 -7.234375 C 3.234375 -7.242188 3.078125 -7.25 2.890625 -7.25 L 2.65625 -7.25 Z M 2.65625 -4.921875 "/></g></g></g><g fill="#9695ff" fill-opacity="1"><g transform="translate(176.414784, 224.362939)"><g><path d="M 2.65625 -5.5 L 2.65625 0 L 0.640625 0 L 0.640625 -8.859375 L 2.65625 -8.859375 L 6.1875 -3.359375 L 6.203125 -3.359375 L 6.203125 -8.859375 L 8.21875 -8.859375 L 8.21875 0 L 6.203125 0 L 2.6875 -5.5 Z M 2.65625 -5.5 "/></g></g></g><g fill="#9695ff" fill-opacity="1"><g transform="translate(185.271629, 224.362939)"><g><path d="M 2.65625 -8.859375 L 2.65625 0 L 0.640625 0 L 0.640625 -8.859375 Z M 2.65625 -8.859375 "/></g></g></g><g fill="#9695ff" fill-opacity="1"><g transform="translate(188.574188, 224.362939)"><g><path d="M 2.65625 -5.5 L 2.65625 0 L 0.640625 0 L 0.640625 -8.859375 L 2.65625 -8.859375 L 6.1875 -3.359375 L 6.203125 -3.359375 L 6.203125 -8.859375 L 8.21875 -8.859375 L 8.21875 0 L 6.203125 0 L 2.6875 -5.5 Z M 2.65625 -5.5 "/></g></g></g><g fill="#9695ff" fill-opacity="1"><g transform="translate(197.431033, 224.362939)"><g><path d="M 8.65625 -4.953125 L 8.65625 -3.03125 C 8.425781 -1.976562 7.921875 -1.179688 7.140625 -0.640625 C 6.367188 -0.109375 5.507812 0.15625 4.5625 0.15625 C 3.363281 0.15625 2.34375 -0.285156 1.5 -1.171875 C 0.664062 -2.066406 0.25 -3.148438 0.25 -4.421875 C 0.25 -5.710938 0.660156 -6.800781 1.484375 -7.6875 C 2.304688 -8.570312 3.332031 -9.015625 4.5625 -9.015625 C 6 -9.015625 7.132812 -8.507812 7.96875 -7.5 L 6.65625 -6.046875 C 6.1875 -6.804688 5.53125 -7.1875 4.6875 -7.1875 C 4.0625 -7.1875 3.523438 -6.914062 3.078125 -6.375 C 2.640625 -5.84375 2.421875 -5.191406 2.421875 -4.421875 C 2.421875 -3.671875 2.640625 -3.03125 3.078125 -2.5 C 3.523438 -1.96875 4.0625 -1.703125 4.6875 -1.703125 C 5.195312 -1.703125 5.644531 -1.851562 6.03125 -2.15625 C 6.414062 -2.46875 6.609375 -2.882812 6.609375 -3.40625 L 4.5625 -3.40625 L 4.5625 -4.953125 Z M 8.65625 -4.953125 "/></g></g></g></svg>